REM DIRINDEX 1\5,1\2\6,1\2\7,1\3\8,1\3\9,1\4\10,1\4\11,1\4\12
REM DIRNAME folder01,folder02,folder03,folder04,folder05,folder06,folder07,folder08,folder09,folder10,folder11,folder12
TITLE ""
FILE "EJE_DB3000_5th_4B_29.mp3" MP3
  TRACK 01 AUDIO
    TITLE "0:"
    INDEX 01 00:00:00
  TRACK 02 AUDIO
    TITLE "10:cjc026_09285"
    INDEX 01 00:00:05
  TRACK 03 AUDIO
    TITLE "0:"
    INDEX 01 00:01:11
  TRACK 04 AUDIO
    TITLE "11:cjc026_09286"
    INDEX 01 00:01:36
  TRACK 05 AUDIO
    TITLE "0:"
    INDEX 01 00:02:40
  TRACK 06 AUDIO
    TITLE "12:cjc026_09287"
    INDEX 01 00:02:67
  TRACK 07 AUDIO
    TITLE "0:"
    INDEX 01 00:03:70
  TRACK 08 AUDIO
    TITLE "10:cjc026_09288"
    INDEX 01 00:04:21
  TRACK 09 AUDIO
    TITLE "0:"
    INDEX 01 00:05:24
  TRACK 10 AUDIO
    TITLE "11:cjc026_09289"
    INDEX 01 00:05:50
  TRACK 11 AUDIO
    TITLE "0:"
    INDEX 01 00:06:41
  TRACK 12 AUDIO
    TITLE "12:cjc026_09290"
    INDEX 01 00:06:69
  TRACK 13 AUDIO
    TITLE "0:"
    INDEX 01 00:07:70
  TRACK 14 AUDIO
    TITLE "10:cjc026_09291"
    INDEX 01 00:08:23
  TRACK 15 AUDIO
    TITLE "0:"
    INDEX 01 00:09:24
  TRACK 16 AUDIO
    TITLE "11:cjc026_09292"
    INDEX 01 00:09:47
  TRACK 17 AUDIO
    TITLE "0:"
    INDEX 01 00:10:66
  TRACK 18 AUDIO
    TITLE "12:cjc026_09293"
    INDEX 01 00:11:15
  TRACK 19 AUDIO
    TITLE "0:"
    INDEX 01 00:12:16
  TRACK 20 AUDIO
    TITLE "10:cjc026_09294"
    INDEX 01 00:12:42
  TRACK 21 AUDIO
    TITLE "0:"
    INDEX 01 00:13:43
  TRACK 22 AUDIO
    TITLE "11:cjc026_09295"
    INDEX 01 00:13:71
  TRACK 23 AUDIO
    TITLE "0:"
    INDEX 01 00:14:68
  TRACK 24 AUDIO
    TITLE "12:cjc026_09296"
    INDEX 01 00:15:21
  TRACK 25 AUDIO
    TITLE "0:"
    INDEX 01 00:16:22
  TRACK 26 AUDIO
    TITLE "10:cjc026_09297"
    INDEX 01 00:16:49
  TRACK 27 AUDIO
    TITLE "0:"
    INDEX 01 00:17:43
  TRACK 28 AUDIO
    TITLE "11:cjc026_09298"
    INDEX 01 00:17:70
  TRACK 29 AUDIO
    TITLE "0:"
    INDEX 01 00:18:62
  TRACK 30 AUDIO
    TITLE "12:cjc026_09299"
    INDEX 01 00:19:13
  TRACK 31 AUDIO
    TITLE "0:"
    INDEX 01 00:20:06
  TRACK 32 AUDIO
    TITLE "10:cjc026_09300"
    INDEX 01 00:20:34
  TRACK 33 AUDIO
    TITLE "0:"
    INDEX 01 00:21:35
  TRACK 34 AUDIO
    TITLE "11:cjc026_09301"
    INDEX 01 00:21:64
  TRACK 35 AUDIO
    TITLE "0:"
    INDEX 01 00:22:68
  TRACK 36 AUDIO
    TITLE "12:cjc026_09302"
    INDEX 01 00:23:20
  TRACK 37 AUDIO
    TITLE "0:"
    INDEX 01 00:24:20
  TRACK 38 AUDIO
    TITLE "10:cjc026_09303"
    INDEX 01 00:24:47
  TRACK 39 AUDIO
    TITLE "0:"
    INDEX 01 00:25:48
  TRACK 40 AUDIO
    TITLE "11:cjc026_09304"
    INDEX 01 00:26:01
  TRACK 41 AUDIO
    TITLE "0:"
    INDEX 01 00:26:71
  TRACK 42 AUDIO
    TITLE "12:cjc026_09305"
    INDEX 01 00:27:22
  TRACK 43 AUDIO
    TITLE "0:"
    INDEX 01 00:28:23
  TRACK 44 AUDIO
    TITLE "10:cjc026_09306"
    INDEX 01 00:28:51
  TRACK 45 AUDIO
    TITLE "0:"
    INDEX 01 00:29:42
  TRACK 46 AUDIO
    TITLE "11:cjc026_09307"
    INDEX 01 00:29:70
  TRACK 47 AUDIO
    TITLE "0:"
    INDEX 01 00:30:61
  TRACK 48 AUDIO
    TITLE "12:cjc026_09308"
    INDEX 01 00:31:16
  TRACK 49 AUDIO
    TITLE "0:"
    INDEX 01 00:32:09
  TRACK 50 AUDIO
    TITLE "10:cjc026_09309"
    INDEX 01 00:32:37
  TRACK 51 AUDIO
    TITLE "0:"
    INDEX 01 00:33:60
  TRACK 52 AUDIO
    TITLE "11:cjc026_09310"
    INDEX 01 00:34:12
  TRACK 53 AUDIO
    TITLE "0:"
    INDEX 01 00:35:21
  TRACK 54 AUDIO
    TITLE "12:cjc026_09311"
    INDEX 01 00:35:47
  TRACK 55 AUDIO
    TITLE "0:"
    INDEX 01 00:36:70
  TRACK 56 AUDIO
    TITLE "10:cjc026_09312"
    INDEX 01 00:37:22
  TRACK 57 AUDIO
    TITLE "0:"
    INDEX 01 00:38:26
  TRACK 58 AUDIO
    TITLE "11:cjc026_09313"
    INDEX 01 00:38:53
  TRACK 59 AUDIO
    TITLE "0:"
    INDEX 01 00:39:58
  TRACK 60 AUDIO
    TITLE "12:cjc026_09314"
    INDEX 01 00:40:09
  TRACK 61 AUDIO
    TITLE "0:"
    INDEX 01 00:41:10
  TRACK 62 AUDIO
    TITLE "10:cjc026_09315"
    INDEX 01 00:41:40
  TRACK 63 AUDIO
    TITLE "0:"
    INDEX 01 00:42:49
  TRACK 64 AUDIO
    TITLE "11:cjc026_09316"
    INDEX 01 00:43:01
  TRACK 65 AUDIO
    TITLE "0:"
    INDEX 01 00:44:22
  TRACK 66 AUDIO
    TITLE "12:cjc026_09317"
    INDEX 01 00:44:48
  TRACK 67 AUDIO
    TITLE "0:"
    INDEX 01 00:45:57
  TRACK 68 AUDIO
    TITLE "10:cjc026_09318"
    INDEX 01 00:46:11
  TRACK 69 AUDIO
    TITLE "0:"
    INDEX 01 00:47:13
  TRACK 70 AUDIO
    TITLE "11:cjc026_09319"
    INDEX 01 00:47:40
  TRACK 71 AUDIO
    TITLE "0:"
    INDEX 01 00:48:40
  TRACK 72 AUDIO
    TITLE "12:cjc026_09320"
    INDEX 01 00:48:67
  TRACK 73 AUDIO
    TITLE "0:"
    INDEX 01 00:49:69
  TRACK 74 AUDIO
    TITLE "10:cjc026_09321"
    INDEX 01 00:50:21
  TRACK 75 AUDIO
    TITLE "0:"
    INDEX 01 00:51:32
  TRACK 76 AUDIO
    TITLE "11:cjc026_09322"
    INDEX 01 00:51:62
  TRACK 77 AUDIO
    TITLE "0:"
    INDEX 01 00:53:11
  TRACK 78 AUDIO
    TITLE "12:cjc026_09323"
    INDEX 01 00:53:39
  TRACK 79 AUDIO
    TITLE "0:"
    INDEX 01 00:54:50
